<svg xmlns="http://www.w3.org/2000/svg" width="60" height="60" viewBox="0 0 60 60" fill="none"><g clip-path="url(#clip0_2_2)"><rect width="1920" height="7834" transform="translate(-970 -997)" fill="white"></rect><path fill-rule="evenodd" clip-rule="evenodd" d="M28.6791 52.01C28.9647 52.4647 29.4647 52.7419 30.0024 52.7419C30.5401 52.7419 31.0401 52.4647 31.3257 52.01C35.5549 45.2669 48.6333 24.4133 51.6351 19.6269C52.0014 19.0423 51.9412 18.2865 51.4861 17.7668C49.7648 15.8022 45.6356 11.0871 44.2439 9.498C43.947 9.16053 43.5185 8.96565 43.0685 8.96565C39.2128 8.96565 20.792 8.96565 16.9363 8.96565C16.4863 8.96565 16.0578 9.16053 15.7609 9.498C14.3692 11.0871 10.24 15.8022 8.5187 17.7668C8.06364 18.2865 8.00344 19.0423 8.36974 19.6269C11.3715 24.4133 24.4499 45.2669 28.6791 52.01Z" fill="#FDF0EA"></path><path fill-rule="evenodd" clip-rule="evenodd" d="M8.19855 18.6562H51.8266C51.763 18.4478 51.6557 18.2508 51.5056 18.0789C49.7839 16.1144 45.6516 11.3984 44.2593 9.80909C43.9633 9.47038 43.5339 9.27655 43.0837 9.27655C39.2276 9.27655 20.7976 9.27655 16.9415 9.27655C16.4912 9.27655 16.0619 9.47038 15.7659 9.80909C14.3735 11.3984 10.2412 16.1144 8.51954 18.0789C8.36947 18.2508 8.26212 18.4478 8.19855 18.6562Z" fill="white"></path><path fill-rule="evenodd" clip-rule="evenodd" d="M23.7594 18.6562L30.0126 9.27655H16.9414C16.7924 9.27655 16.6455 9.29739 16.5048 9.33908L23.7594 18.6562ZM30.0126 9.27655L36.2657 18.6562L43.5203 9.33908C43.3797 9.29739 43.2327 9.27655 43.0837 9.27655H30.0126Z" fill="#FDF0EA"></path><path fill-rule="evenodd" clip-rule="evenodd" d="M36.2657 18.6562H23.7595L30.0126 9.27655L36.2657 18.6562Z" fill="white"></path><path fill-rule="evenodd" clip-rule="evenodd" d="M30.0126 53.0609L23.7595 18.6562H36.2657L30.0126 53.0609Z" fill="white"></path><path fill-rule="evenodd" clip-rule="evenodd" d="M17.5041 46.8265L18.7381 48.7198L20.6313 49.9537L18.7381 51.1866L17.5041 53.0798L16.2713 51.1866L14.3781 49.9537L16.2713 48.7198L17.5041 46.8265Z" fill="#FDF0EA"></path><path fill-rule="evenodd" clip-rule="evenodd" d="M11.2541 34.3265L12.4881 36.2198L14.3813 37.4537L12.4881 38.6866L11.2541 40.5798L10.0213 38.6866L8.12805 37.4537L10.0213 36.2198L11.2541 34.3265Z" fill="#FDF0EA"></path><path fill-rule="evenodd" clip-rule="evenodd" d="M47.7119 39.5344L48.9459 41.4276L50.8391 42.6616L48.9459 43.8945L47.7119 45.7877L46.479 43.8945L44.5858 42.6616L46.479 41.4276L47.7119 39.5344Z" fill="#FDF0EA"></path><path d="M24.2782 46.1203C24.8538 46.1203 25.3204 45.6537 25.3204 45.0781C25.3204 44.5025 24.8538 44.0359 24.2782 44.0359C23.7026 44.0359 23.236 44.5025 23.236 45.0781C23.236 45.6537 23.7026 46.1203 24.2782 46.1203Z" fill="#EB662B"></path><path fill-rule="evenodd" clip-rule="evenodd" d="M9.44917 19.6984H22.8965L28.7609 50.4836L26.9308 47.5665C26.6255 47.0788 25.9814 46.9319 25.4947 47.2372C25.0069 47.5426 24.86 48.1866 25.1654 48.6733C25.1654 48.6733 27.1268 51.8009 27.8052 52.8827C28.2815 53.6425 29.1152 54.1031 30.0126 54.1031C30.9099 54.1031 31.7436 53.6425 32.2199 52.8827L52.5374 20.4936C53.1491 19.5192 53.048 18.2581 52.2893 17.3921C50.5676 15.4275 46.4364 10.7116 45.044 9.12231C44.549 8.55848 43.8351 8.23438 43.0837 8.23438H16.9415C16.19 8.23438 15.4761 8.55848 14.9811 9.12231C13.5887 10.7116 9.45751 15.4275 7.73581 17.3921C6.9771 18.2581 6.87601 19.5192 7.48777 20.4936L21.7188 43.18C22.0252 43.6677 22.6683 43.8146 23.156 43.5093C23.6427 43.2039 23.7907 42.5599 23.4854 42.0732L9.44917 19.6984ZM49.713 17.6141L43.7215 10.7763L38.398 17.6141H45.6454C46.2207 17.6141 46.6876 18.081 46.6876 18.6563C46.6876 19.2315 46.2207 19.6984 45.6454 19.6984H37.1286L31.2642 50.4836L50.576 19.6984H48.7719C48.1967 19.6984 47.7298 19.2315 47.7298 18.6563C47.7298 18.081 48.1967 17.6141 48.7719 17.6141H49.713ZM35.0067 19.6984H25.0184L30.0126 45.9157L35.0067 19.6984ZM10.3121 17.6141H21.6271L16.3036 10.7763L10.3121 17.6141ZM25.7073 17.6141H34.3178L30.0126 11.1556L25.7073 17.6141ZM41.436 10.3188H31.9604L36.3314 16.8751L41.436 10.3188ZM28.0647 10.3188H18.5892L23.6938 16.8751L28.0647 10.3188Z" fill="#EB662B"></path><path fill-rule="evenodd" clip-rule="evenodd" d="M18.3772 46.2573C18.1853 45.9622 17.8573 45.7845 17.5041 45.7845C17.152 45.7845 16.8241 45.9622 16.631 46.2573L15.5177 47.9662L13.8087 49.0807C13.5137 49.2726 13.3349 49.6006 13.3349 49.9538C13.3349 50.3059 13.5137 50.6338 13.8087 50.8269L15.5177 51.9402L16.631 53.6492C16.8241 53.9442 17.152 54.123 17.5041 54.123C17.8573 54.123 18.1853 53.9442 18.3772 53.6492L19.4917 51.9402L21.2006 50.8269C21.4957 50.6338 21.6733 50.3059 21.6733 49.9538C21.6733 49.6006 21.4957 49.2726 21.2006 49.0807L19.4917 47.9662L18.3772 46.2573ZM17.5041 48.7351L17.865 49.2891C17.944 49.4097 18.0482 49.5139 18.1688 49.5929L18.7228 49.9538L18.1688 50.3135C18.0482 50.3925 17.944 50.4967 17.865 50.6185L17.5041 51.1713L17.1443 50.6185C17.0654 50.4967 16.9612 50.3925 16.8394 50.3135L16.2866 49.9538L16.8394 49.5929C16.9612 49.5139 17.0654 49.4097 17.1443 49.2891L17.5041 48.7351Z" fill="#EB662B"></path><path fill-rule="evenodd" clip-rule="evenodd" d="M12.1272 33.7573C11.9353 33.4622 11.6073 33.2845 11.2541 33.2845C10.902 33.2845 10.5741 33.4622 10.381 33.7573L9.26768 35.4662L7.55875 36.5807C7.26369 36.7726 7.0849 37.1006 7.0849 37.4538C7.0849 37.8059 7.26369 38.1338 7.55875 38.3269L9.26768 39.4402L10.381 41.1492C10.5741 41.4442 10.902 41.623 11.2541 41.623C11.6073 41.623 11.9353 41.4442 12.1272 41.1492L13.2417 39.4402L14.9506 38.3269C15.2457 38.1338 15.4233 37.8059 15.4233 37.4538C15.4233 37.1006 15.2457 36.7726 14.9506 36.5807L13.2417 35.4662L12.1272 33.7573ZM11.2541 36.2351L11.615 36.7891C11.694 36.9097 11.7982 37.0139 11.9188 37.0929L12.4728 37.4538L11.9188 37.8135C11.7982 37.8925 11.694 37.9967 11.615 38.1185L11.2541 38.6713L10.8943 38.1185C10.8154 37.9967 10.7112 37.8925 10.5894 37.8135L10.0366 37.4538L10.5894 37.0929C10.7112 37.0139 10.8154 36.9097 10.8943 36.7891L11.2541 36.2351Z" fill="#EB662B"></path><path fill-rule="evenodd" clip-rule="evenodd" d="M48.5851 38.9651C48.3931 38.67 48.0651 38.4923 47.7119 38.4923C47.3598 38.4923 47.0319 38.67 46.8388 38.9651L45.7255 40.674L44.0166 41.7884C43.7215 41.9804 43.5427 42.3084 43.5427 42.6616C43.5427 43.0137 43.7215 43.3416 44.0166 43.5347L45.7255 44.648L46.8388 46.3569C47.0319 46.652 47.3598 46.8308 47.7119 46.8308C48.0651 46.8308 48.3931 46.652 48.5851 46.3569L49.6995 44.648L51.4084 43.5347C51.7035 43.3416 51.8812 43.0137 51.8812 42.6616C51.8812 42.3084 51.7035 41.9804 51.4084 41.7884L49.6995 40.674L48.5851 38.9651ZM47.7119 41.4429L48.0728 41.9968C48.1518 42.1175 48.256 42.2217 48.3767 42.3007L48.9306 42.6616L48.3767 43.0213C48.256 43.1003 48.1518 43.2045 48.0728 43.3263L47.7119 43.8791L47.3522 43.3263C47.2732 43.2045 47.169 43.1003 47.0472 43.0213L46.4944 42.6616L47.0472 42.3007C47.169 42.2217 47.2732 42.1175 47.3522 41.9968L47.7119 41.4429Z" fill="#EB662B"></path></g><defs><clipPath id="clip0_2_2"><rect width="1920" height="7834" fill="white" transform="translate(-970 -997)"></rect></clipPath></defs></svg>