<svg width="33" height="32" viewBox="0 0 33 32" fill="none" xmlns="http://www.w3.org/2000/svg">
<path fill-rule="evenodd" clip-rule="evenodd" d="M9.2998 29.5H13.2998V25L14.2998 24.5H18.2998L19.2998 25.5V29.5H30.2998V18L29.7998 17.5H23.2998V8L22.7998 7.5L9.7998 4.5L9.2998 5V29.5Z" fill="#DDE9FD"/>
<path fill-rule="evenodd" clip-rule="evenodd" d="M6.2998 13C7.95666 13 9.2998 14.3431 9.2998 16C9.2998 16.351 9.23953 16.6879 9.12878 17.0009C10.1485 17.8259 10.7998 19.0869 10.7998 20.5C10.7998 22.9853 8.78509 25 6.2998 25C3.81452 25 1.7998 22.9853 1.7998 20.5C1.7998 19.0869 2.45115 17.8259 3.47 17.0009C3.36007 16.6879 3.2998 16.351 3.2998 16C3.2998 14.3431 4.64295 13 6.2998 13Z" fill="#71C865"/>
<path d="M18.7998 29.9999V25.9999C18.7998 25.4476 18.3521 24.9999 17.7998 24.9999H14.7998C14.2475 24.9999 13.7998 25.4476 13.7998 25.9999V29.9999H8.7998L8.80042 24.8306C8.2013 25.1773 7.52357 25.4032 6.80051 25.4751L6.7998 29.9999H5.7998L5.8001 25.4752C3.2733 25.2245 1.2998 23.0927 1.2998 20.4999C1.2998 19.2263 1.77941 18.0306 2.61342 17.1216L2.78491 16.9437L2.9008 16.8329L2.87192 16.7106L2.83201 16.4766L2.80789 16.2395L2.7998 15.9999C2.7998 14.0669 4.36681 12.4999 6.2998 12.4999C7.27969 12.4999 8.16552 12.9026 8.80085 13.5515L8.7998 5.11837C8.7998 5.04794 8.80725 4.97771 8.822 4.90884C8.93772 4.36882 9.46931 4.02485 10.0093 4.14057L22.6141 6.84159C23.3057 6.98979 23.7998 7.60099 23.7998 8.30829V16.9999H29.2998C30.0795 16.9999 30.7203 17.5948 30.7929 18.3554L30.7998 18.4999V29.9999H18.7998ZM22.7998 8.30829C22.7998 8.07252 22.6351 7.86879 22.4046 7.81939L9.84387 5.12577L9.7998 5.11988V16.9302L9.81395 16.9435C10.6364 17.7553 11.1572 18.829 11.2745 19.995L11.2934 20.2462L11.2998 20.4999C11.2998 21.8979 10.726 23.162 9.80109 24.0693L9.7998 28.9999H12.7998V25.9999C12.7998 24.9455 13.6157 24.0817 14.6505 24.0054L14.7998 23.9999H17.7998C18.9044 23.9999 19.7998 24.8953 19.7998 25.9999V28.9999L22.7998 28.9992V8.30829ZM23.7998 28.9992L29.7998 28.9999V18.4999C29.7998 18.2544 29.6229 18.0503 29.3897 18.0079L29.2998 17.9999H23.7998V28.9992ZM28.7998 23.9999V24.9999H24.7998V23.9999H28.7998ZM6.2998 13.4999C4.91909 13.4999 3.7998 14.6192 3.7998 15.9999C3.7998 16.2157 3.82705 16.4278 3.88013 16.6327L3.94176 16.8351L4.05851 17.1676L3.78465 17.3894C2.85178 18.1448 2.2998 19.2765 2.2998 20.4999C2.2998 22.709 4.09067 24.4999 6.2998 24.4999C8.50894 24.4999 10.2998 22.709 10.2998 20.4999C10.2998 19.3528 9.81455 18.2865 8.98479 17.5354L8.81428 17.3895L8.53953 17.1672L8.65741 16.834C8.75126 16.5688 8.7998 16.288 8.7998 15.9999C8.7998 14.6192 7.68052 13.4999 6.2998 13.4999ZM28.7998 20.9999V21.9999H24.7998V20.9999H28.7998ZM15.7998 14.9999V15.9999H13.8104L13.7998 17.9999H12.7892L12.7998 14.9999H15.7998ZM19.8104 14.9999V15.9999H17.821L17.8104 17.9999H16.7998L16.8104 14.9999H19.8104ZM15.7998 9.99988V10.9999H13.8104L13.7998 12.9999H12.7892L12.7998 9.99988H15.7998ZM19.8104 9.99988V10.9999H17.821L17.8104 12.9999H16.7998L16.8104 9.99988H19.8104Z" fill="#333333"/>
</svg>
