<svg width="33" height="32" viewBox="0 0 33 32" fill="none" xmlns="http://www.w3.org/2000/svg">
<path d="M8.7998 28.3332C7.69524 28.3332 6.7998 27.4377 6.7998 26.3332V19.3332C6.7998 18.2286 7.69524 17.3332 8.7998 17.3332H12.7998L12.9729 17.1729L13.2401 16.9025C14.1207 15.9755 16.1292 13.5246 17.4726 9.28416C17.777 8.32339 18.6744 7.6665 19.6933 7.6665C20.922 7.6665 21.728 8.63983 21.7952 9.83549L21.7998 9.99984V14.9998H28.7998C29.8473 14.9998 30.7258 16.1091 30.8002 17.1736L30.8053 17.3183V19.8871C30.8053 22.4745 30.6391 25.1606 29.6668 27.5628C28.9139 29.4231 27.4031 29.4918 25.4663 29.4874L24.8053 29.485L12.7998 28.3332H8.7998Z" fill="black"/>
<path d="M19.6933 8.6665C19.1112 8.6665 18.5989 9.0402 18.4259 9.58617C17.9436 11.1085 17.3521 12.4963 16.6748 13.7526C15.7431 15.4806 14.801 16.7322 14.0334 17.5361L13.7998 17.7705V27.4235L24.8053 28.4852H25.7064C27.7828 28.4664 28.316 28.2349 28.7398 27.1876C29.4889 25.3369 29.7764 23.259 29.8032 20.3529L29.8053 19.8871V17.3183C29.8053 16.7149 29.3219 16.0893 28.8911 16.0086L28.7998 15.9998H20.7998V9.99937C20.8002 9.1973 20.3425 8.6665 19.6933 8.6665Z" fill="white"/>
<path d="M12.7998 27.333V18.333L8.7998 18.3333C8.28697 18.3333 7.8643 18.7194 7.80653 19.2167L7.7998 19.3333V26.3333C7.7998 26.8462 8.18584 27.2688 8.68318 27.3266L8.7998 27.3333L12.7998 27.333Z" fill="#75A8F9"/>
<path d="M8.29474 14.0487L8.29978 15.0026C8.30328 15.6693 9.30328 15.664 9.29976 14.9974L9.29508 14.1083C9.28048 11.3596 11.6044 9.09435 14.5449 8.96973L14.8009 8.96433C15.4668 8.96282 15.4657 7.96433 14.7998 7.96433C11.7492 7.96433 9.28485 5.66987 9.26967 2.84739L9.26513 1.99733C9.26159 1.33245 8.26514 1.33511 8.26514 2V2.88241C8.26514 5.61141 5.94583 7.84986 3.02559 7.96008L2.7998 7.96433C2.17018 7.96433 2.1352 8.85631 2.69487 8.95541L2.7998 8.96433C5.83115 8.96433 8.27983 11.2442 8.29474 14.0487Z" fill="black"/>
<path d="M8.77809 5.20215L8.86215 5.38249C9.51967 6.72985 10.6799 7.81295 12.1145 8.42249L12.2201 8.46515L12.0878 8.52041C10.658 9.13808 9.50684 10.2288 8.86209 11.5805L8.79709 11.7221C8.16148 10.2909 6.96618 9.13875 5.4713 8.50358L5.37109 8.46315L5.46728 8.42436C6.95903 7.78813 8.14985 6.63446 8.77809 5.20215Z" fill="#FFEE00"/>
</svg>
